<?xml version="1.0" encoding="utf-8"?>
<!-- Generator: Adobe Illustrator 15.0.0, SVG Export Plug-In . SVG Version: 6.00 Build 0)  -->
<!DOCTYPE svg PUBLIC "-//W3C//DTD SVG 1.1//EN" "http://www.w3.org/Graphics/SVG/1.1/DTD/svg11.dtd">
<svg version="1.1" id="Layer_1" xmlns="http://www.w3.org/2000/svg" xmlns:xlink="http://www.w3.org/1999/xlink" x="0px" y="0px"
	 width="144px" height="125.654px" viewBox="0 0 144 125.654" enable-background="new 0 0 144 125.654" xml:space="preserve">
<pattern  x="-143.5" y="207.327" width="54" height="54" patternUnits="userSpaceOnUse" id="SVGID_15_" viewBox="0 -54 54 54" overflow="visible">
	<g>
		<polygon fill="none" points="0,0 54,0 54,-54 0,-54 		"/>
		<g>
			<polygon fill="none" points="0,-54 54,-54 54,0 0,0 			"/>
			<g>
				<polygon fill="none" points="0,0 54,0 54,-54 0,-54 				"/>
				<g>
					<polygon fill="none" points="0,-54 54,-54 54,0 0,0 					"/>
					<g>
						<polygon fill="none" points="0,0 54,0 54,-54 0,-54 						"/>
						<polygon fill="#6B6B6B" points="54,0 0,0 0,-54 54,-54 						"/>
					</g>
				</g>
			</g>
		</g>
	</g>
</pattern>
<pattern  x="-143.5" y="207.327" width="54" height="54" patternUnits="userSpaceOnUse" id="SVGID_16_" viewBox="0 -54 54 54" overflow="visible">
	<g>
		<polygon fill="none" points="0,0 54,0 54,-54 0,-54 		"/>
		<g>
			<polygon fill="none" points="0,-54 54,-54 54,0 0,0 			"/>
			<g>
				<polygon fill="none" points="0,0 54,0 54,-54 0,-54 				"/>
				<g>
					<polygon fill="none" points="0,-54 54,-54 54,0 0,0 					"/>
					<g>
						<polygon fill="none" points="0,0 54,0 54,-54 0,-54 						"/>
						<polygon fill="#6B6B6B" points="54,0 0,0 0,-54 54,-54 						"/>
					</g>
				</g>
			</g>
		</g>
	</g>
</pattern>
<pattern  x="-143.5" y="207.327" width="54" height="54" patternUnits="userSpaceOnUse" id="SVGID_17_" viewBox="0 -54 54 54" overflow="visible">
	<g>
		<polygon fill="none" points="0,0 54,0 54,-54 0,-54 		"/>
		<g>
			<polygon fill="none" points="0,-54 54,-54 54,0 0,0 			"/>
			<g>
				<polygon fill="none" points="0,0 54,0 54,-54 0,-54 				"/>
				<g>
					<polygon fill="none" points="0,-54 54,-54 54,0 0,0 					"/>
					<g>
						<polygon fill="none" points="0,0 54,0 54,-54 0,-54 						"/>
						<polygon fill="#6B6B6B" points="54,0 0,0 0,-54 54,-54 						"/>
					</g>
				</g>
			</g>
		</g>
	</g>
</pattern>
<pattern  x="-143.5" y="207.327" width="54" height="54" patternUnits="userSpaceOnUse" id="SVGID_18_" viewBox="0 -54 54 54" overflow="visible">
	<g>
		<polygon fill="none" points="0,0 54,0 54,-54 0,-54 		"/>
		<g>
			<polygon fill="none" points="0,-54 54,-54 54,0 0,0 			"/>
			<g>
				<polygon fill="none" points="0,0 54,0 54,-54 0,-54 				"/>
				<g>
					<polygon fill="none" points="0,-54 54,-54 54,0 0,0 					"/>
					<g>
						<polygon fill="none" points="0,0 54,0 54,-54 0,-54 						"/>
						<polygon fill="#6B6B6B" points="54,0 0,0 0,-54 54,-54 						"/>
					</g>
				</g>
			</g>
		</g>
	</g>
</pattern>
<pattern  x="-143.5" y="207.327" width="54" height="54" patternUnits="userSpaceOnUse" id="SVGID_19_" viewBox="0 -54 54 54" overflow="visible">
	<g>
		<polygon fill="none" points="0,0 54,0 54,-54 0,-54 		"/>
		<g>
			<polygon fill="none" points="0,-54 54,-54 54,0 0,0 			"/>
			<g>
				<polygon fill="none" points="0,0 54,0 54,-54 0,-54 				"/>
				<g>
					<polygon fill="none" points="0,-54 54,-54 54,0 0,0 					"/>
					<g>
						<polygon fill="none" points="0,0 54,0 54,-54 0,-54 						"/>
						<polygon fill="#6B6B6B" points="54,0 0,0 0,-54 54,-54 						"/>
					</g>
				</g>
			</g>
		</g>
	</g>
</pattern>
<pattern  x="-143.5" y="207.327" width="54" height="54" patternUnits="userSpaceOnUse" id="SVGID_20_" viewBox="0 -54 54 54" overflow="visible">
	<g>
		<polygon fill="none" points="0,0 54,0 54,-54 0,-54 		"/>
		<g>
			<polygon fill="none" points="0,-54 54,-54 54,0 0,0 			"/>
			<g>
				<polygon fill="none" points="0,0 54,0 54,-54 0,-54 				"/>
				<g>
					<polygon fill="none" points="0,-54 54,-54 54,0 0,0 					"/>
					<g>
						<polygon fill="none" points="0,0 54,0 54,-54 0,-54 						"/>
						<polygon fill="#6B6B6B" points="54,0 0,0 0,-54 54,-54 						"/>
					</g>
				</g>
			</g>
		</g>
	</g>
</pattern>
<pattern  x="-143.5" y="207.327" width="54" height="54" patternUnits="userSpaceOnUse" id="SVGID_21_" viewBox="0 -54 54 54" overflow="visible">
	<g>
		<polygon fill="none" points="0,0 54,0 54,-54 0,-54 		"/>
		<g>
			<polygon fill="none" points="0,-54 54,-54 54,0 0,0 			"/>
			<g>
				<polygon fill="none" points="0,0 54,0 54,-54 0,-54 				"/>
				<g>
					<polygon fill="none" points="0,-54 54,-54 54,0 0,0 					"/>
					<g>
						<polygon fill="none" points="0,0 54,0 54,-54 0,-54 						"/>
						<polygon fill="#6B6B6B" points="54,0 0,0 0,-54 54,-54 						"/>
					</g>
				</g>
			</g>
		</g>
	</g>
</pattern>
<pattern  x="-143.5" y="207.327" width="54" height="54" patternUnits="userSpaceOnUse" id="SVGID_22_" viewBox="0 -54 54 54" overflow="visible">
	<g>
		<polygon fill="none" points="0,0 54,0 54,-54 0,-54 		"/>
		<g>
			<polygon fill="none" points="0,-54 54,-54 54,0 0,0 			"/>
			<g>
				<polygon fill="none" points="0,0 54,0 54,-54 0,-54 				"/>
				<g>
					<polygon fill="none" points="0,-54 54,-54 54,0 0,0 					"/>
					<g>
						<polygon fill="none" points="0,0 54,0 54,-54 0,-54 						"/>
						<polygon fill="#6B6B6B" points="54,0 0,0 0,-54 54,-54 						"/>
					</g>
				</g>
			</g>
		</g>
	</g>
</pattern>
<pattern  x="-143.5" y="207.327" width="54" height="54" patternUnits="userSpaceOnUse" id="SVGID_23_" viewBox="0 -54 54 54" overflow="visible">
	<g>
		<polygon fill="none" points="0,0 54,0 54,-54 0,-54 		"/>
		<g>
			<polygon fill="none" points="0,-54 54,-54 54,0 0,0 			"/>
			<g>
				<polygon fill="none" points="0,0 54,0 54,-54 0,-54 				"/>
				<g>
					<polygon fill="none" points="0,-54 54,-54 54,0 0,0 					"/>
					<g>
						<polygon fill="none" points="0,0 54,0 54,-54 0,-54 						"/>
						<polygon fill="#6B6B6B" points="54,0 0,0 0,-54 54,-54 						"/>
					</g>
				</g>
			</g>
		</g>
	</g>
</pattern>
<pattern  x="-143.5" y="207.327" width="54" height="54" patternUnits="userSpaceOnUse" id="SVGID_24_" viewBox="0 -54 54 54" overflow="visible">
	<g>
		<polygon fill="none" points="0,0 54,0 54,-54 0,-54 		"/>
		<g>
			<polygon fill="none" points="0,-54 54,-54 54,0 0,0 			"/>
			<g>
				<polygon fill="none" points="0,0 54,0 54,-54 0,-54 				"/>
				<g>
					<polygon fill="none" points="0,-54 54,-54 54,0 0,0 					"/>
					<g>
						<polygon fill="none" points="0,0 54,0 54,-54 0,-54 						"/>
						<polygon fill="#6B6B6B" points="54,0 0,0 0,-54 54,-54 						"/>
					</g>
				</g>
			</g>
		</g>
	</g>
</pattern>
<pattern  x="-143.5" y="207.327" width="54" height="54" patternUnits="userSpaceOnUse" id="SVGID_25_" viewBox="0 -54 54 54" overflow="visible">
	<g>
		<polygon fill="none" points="0,0 54,0 54,-54 0,-54 		"/>
		<g>
			<polygon fill="none" points="0,-54 54,-54 54,0 0,0 			"/>
			<g>
				<polygon fill="none" points="0,0 54,0 54,-54 0,-54 				"/>
				<g>
					<polygon fill="none" points="0,-54 54,-54 54,0 0,0 					"/>
					<g>
						<polygon fill="none" points="0,0 54,0 54,-54 0,-54 						"/>
						<polygon fill="#6B6B6B" points="54,0 0,0 0,-54 54,-54 						"/>
					</g>
				</g>
			</g>
		</g>
	</g>
</pattern>
<pattern  x="-143.5" y="207.327" width="54" height="54" patternUnits="userSpaceOnUse" id="SVGID_26_" viewBox="0 -54 54 54" overflow="visible">
	<g>
		<polygon fill="none" points="0,0 54,0 54,-54 0,-54 		"/>
		<g>
			<polygon fill="none" points="0,-54 54,-54 54,0 0,0 			"/>
			<g>
				<polygon fill="none" points="0,0 54,0 54,-54 0,-54 				"/>
				<g>
					<polygon fill="none" points="0,-54 54,-54 54,0 0,0 					"/>
					<g>
						<polygon fill="none" points="0,0 54,0 54,-54 0,-54 						"/>
						<polygon fill="#6B6B6B" points="54,0 0,0 0,-54 54,-54 						"/>
					</g>
				</g>
			</g>
		</g>
	</g>
</pattern>
<pattern  x="-143.5" y="207.327" width="54" height="54" patternUnits="userSpaceOnUse" id="SVGID_27_" viewBox="0 -54 54 54" overflow="visible">
	<g>
		<polygon fill="none" points="0,0 54,0 54,-54 0,-54 		"/>
		<g>
			<polygon fill="none" points="0,-54 54,-54 54,0 0,0 			"/>
			<g>
				<polygon fill="none" points="0,0 54,0 54,-54 0,-54 				"/>
				<g>
					<polygon fill="none" points="0,-54 54,-54 54,0 0,0 					"/>
					<g>
						<polygon fill="none" points="0,0 54,0 54,-54 0,-54 						"/>
						<polygon fill="#6B6B6B" points="54,0 0,0 0,-54 54,-54 						"/>
					</g>
				</g>
			</g>
		</g>
	</g>
</pattern>
<pattern  x="-143.5" y="207.327" width="54" height="54" patternUnits="userSpaceOnUse" id="SVGID_28_" viewBox="0 -54 54 54" overflow="visible">
	<g>
		<polygon fill="none" points="0,0 54,0 54,-54 0,-54 		"/>
		<g>
			<polygon fill="none" points="0,-54 54,-54 54,0 0,0 			"/>
			<g>
				<polygon fill="none" points="0,0 54,0 54,-54 0,-54 				"/>
				<g>
					<polygon fill="none" points="0,-54 54,-54 54,0 0,0 					"/>
					<g>
						<polygon fill="none" points="0,0 54,0 54,-54 0,-54 						"/>
						<polygon fill="#6B6B6B" points="54,0 0,0 0,-54 54,-54 						"/>
					</g>
				</g>
			</g>
		</g>
	</g>
</pattern>
<path fill="#FFFFFF" d="M109.921,28.87c0.976-1.997,1.935-4.062,2.938-6.062c0.057-0.109,0.084-0.336,0.273-0.318
	c0.121,0.152,0.033,0.355,0.016,0.518c-0.279,2.558-0.562,5.146-0.838,7.752c-0.019,0.185-0.086,0.419-0.061,0.55
	c0.033,0.168,0.415,0.477,0.562,0.624c0.998,0.998,1.848,1.998,2.862,3.017c0.261,0.261,0.567,0.582,0.868,0.897
	c0.088,0.093,0.262,0.233,0.214,0.335c-0.071,0.149-1.055,0.075-1.293,0.075c-2.755,0-5.364,0.045-8.104,0.045
	c-0.461,0-0.946-0.056-1.354,0c-0.24,0.033-0.512,0.172-0.777,0.261c-0.668,0.221-1.224,0.389-1.947,0.625
	c-0.354,0.112-0.416,0.15-0.52-0.215c-0.037-0.135-0.062-0.191-0.092-0.353c-0.378,0.18-0.581-0.312-0.746-0.531
	c-0.07-0.094-0.148-0.169-0.229-0.272c-0.063-0.086-0.196-0.246-0.197-0.307c-0.005-0.228,0.466-0.398,0.502-0.607
	c0.021-0.131-0.077-0.482-0.105-0.654c-0.246-1.467-0.554-3.035-0.775-4.479c-0.562,0.202-1.18,0.465-1.77,0.715
	c-0.178,0.078-0.377,0.244-0.578,0.153c-0.033-0.165,0.125-0.28,0.213-0.396c0.548-0.713,1.104-1.422,1.677-2.164
	c0.082-0.104,0.196-0.329,0.29-0.35c0.085-0.02,0.294,0.067,0.396,0.092c0.299,0.068,0.489,0.115,0.791,0.183
	c0.137,0.03,0.297,0.028,0.396,0.075c0.133,0.062,0.328,0.396,0.426,0.52c0.148,0.188,0.289,0.359,0.426,0.503
	c0.354-2.431,0.658-4.906,1.036-7.312c0.158-0.159,0.325,0.207,0.441,0.365C106.505,24.36,108.311,26.722,109.921,28.87z
	 M106.555,30.438c0.197-0.029,0.279-0.336,0.502-0.365c0.121-0.017,0.346,0.061,0.521,0.092c0.524,0.095,1.108,0.203,1.567,0.289
	c0.217-0.438,0.434-0.877,0.641-1.325c-1.68-2.28-3.378-4.541-5.087-6.792C105.311,25.041,105.948,27.728,106.555,30.438z
	 M104.302,24.225c-0.196,1.439-0.403,2.837-0.595,4.278c-0.025,0.194-0.145,0.698-0.105,0.868c0.018,0.076,0.142,0.184,0.213,0.273
	c0.526,0.664,1.004,1.286,1.522,1.889c0.367-0.322,0.75-0.631,1.097-0.975c-0.646-2.68-1.229-5.424-1.889-8.088
	C104.486,23.036,104.385,23.612,104.302,24.225z M109.145,31.018c0.219,0.097,0.439,0.188,0.67,0.272
	c0.326-0.255,0.646-0.526,0.976-0.808c0.071-0.062,0.262-0.252,0.364-0.244c0.09,0.009,0.152,0.131,0.229,0.213
	c0.155,0.173,0.293,0.294,0.441,0.443c0.065,0.065,0.125,0.186,0.214,0.166c0.259-2.582,0.589-5.179,0.82-7.736
	C111.635,25.901,110.377,28.446,109.145,31.018z M101.027,27.985c-0.508,0.646-1.006,1.301-1.51,1.949
	c0.439-0.361,0.909-0.744,1.355-1.127c0.146-0.127,0.298-0.32,0.457-0.382c0.286-0.108,0.611-0.047,0.943-0.151
	C101.866,28.174,101.441,28.083,101.027,27.985z M102.49,28.413c-0.342,0.055-0.692,0.101-1.036,0.152
	c0.481,2.76,1.017,5.471,1.508,8.224c0.935-1.441,1.832-2.919,2.728-4.4C104.623,31.062,103.581,29.712,102.49,28.413z
	 M100.417,29.388c-0.298,0.254-0.604,0.51-0.854,0.762c0.002-0.01,0.002-0.02,0.018-0.017c0.275-0.121,0.557-0.229,0.837-0.352
	c0.271-0.113,0.544-0.284,0.854-0.305c0.106,0.266,0.133,0.559,0.184,0.838c0.332,1.871,0.695,3.809,1.035,5.649
	c0.023,0.136,0.015,0.298,0.105,0.411c0.192-0.03,0.067-0.278,0.045-0.396c-0.453-2.427-0.893-4.922-1.34-7.312
	C101.01,28.875,100.715,29.135,100.417,29.388z M108.916,30.926c0.027-0.086,0.119-0.183,0.105-0.259
	c-0.418-0.051-0.84-0.176-1.232-0.198C108.174,30.612,108.538,30.776,108.916,30.926z M105.49,31.748
	c0.123,0.146,0.229,0.309,0.363,0.44c0.332-0.558,0.68-1.101,1.021-1.646c0.004-0.02,0.021-0.03-0.016-0.029
	C106.42,30.944,105.919,31.31,105.49,31.748z M107.744,32.997c0.594-0.475,1.262-1.004,1.843-1.538
	c-0.771-0.302-1.509-0.634-2.284-0.931C107.441,31.36,107.589,32.182,107.744,32.997z M111.125,30.528
	c-1.093,0.908-2.204,1.799-3.273,2.728c2.812,0.869,5.59,1.771,8.393,2.649C114.591,34.12,112.835,32.307,111.125,30.528z
	 M103.373,36.608c0.047,0.021,0.08-0.041,0.105-0.062c1.219-0.977,2.398-1.971,3.596-2.983c0.144-0.123,0.488-0.322,0.518-0.457
	c0.023-0.117-0.074-0.438-0.105-0.625c-0.104-0.592-0.244-1.447-0.364-1.89C105.877,32.604,104.629,34.61,103.373,36.608z
	 M106.891,34.749c-0.203,0.335-0.406,0.668-0.595,0.988c-0.065,0.113-0.159,0.229-0.151,0.32c3.295-0.016,6.603-0.021,9.869-0.062
	c-2.771-0.865-5.521-1.75-8.285-2.619C107.443,33.802,107.171,34.286,106.891,34.749z M105.368,35.28
	c-0.599,0.496-1.204,1.009-1.781,1.494c-0.024,0.02-0.087,0.041-0.077,0.09c0.797-0.26,1.581-0.529,2.393-0.775
	c0.479-0.801,0.969-1.592,1.433-2.406c0.017,0,0.013-0.02-0.017-0.016C106.703,34.213,106.02,34.739,105.368,35.28z M101.803,35.54
	c0.131,0.175,0.262,0.349,0.396,0.52c-0.047-0.272-0.071-0.567-0.151-0.809C101.969,35.353,101.87,35.428,101.803,35.54z"/>
<g>
	<polygon fill="none" points="98.431,69.907 140.593,114.181 70.94,92.327 	"/>
	<polygon fill="none" points="46.626,4.216 62.212,71.351 66.206,68.752 83.194,71.15 88.586,59.164 	"/>
	<path fill="#FFFFFF" d="M88.897,57.826c7.654-15.672,15.185-31.885,23.08-47.589c0.435-0.858,0.665-2.64,2.153-2.51
		c0.943,1.206,0.253,2.803,0.113,4.062c-2.202,20.068-4.413,40.405-6.571,60.859c-0.147,1.437-0.683,3.279-0.477,4.309
		c0.255,1.322,3.262,3.741,4.423,4.899c7.836,7.834,14.496,15.691,22.478,23.676c2.051,2.045,4.457,4.567,6.818,7.053
		c0.688,0.73,2.049,1.846,1.675,2.634c-0.569,1.186-8.299,0.603-10.164,0.603c-21.624,0-42.108,0.353-63.611,0.353
		c-3.616,0-7.44-0.436-10.64,0c-1.894,0.259-4.018,1.346-6.102,2.032c-5.247,1.74-9.604,3.061-15.303,4.904
		c-2.775,0.898-3.261,1.196-4.063-1.675c-0.292-1.055-0.479-1.517-0.717-2.755c-2.967,1.405-4.566-2.463-5.858-4.176
		c-0.551-0.74-1.176-1.328-1.791-2.155c-0.5-0.675-1.546-1.928-1.556-2.391c-0.036-1.779,3.661-3.142,3.948-4.779
		c0.18-1.034-0.613-3.797-0.837-5.145c-1.935-11.51-4.34-23.82-6.1-35.151c-4.42,1.59-9.25,3.642-13.871,5.614
		c-1.4,0.605-2.966,1.906-4.542,1.199c-0.267-1.294,0.975-2.201,1.671-3.11c4.284-5.6,8.646-11.154,13.153-16.979
		c0.639-0.827,1.546-2.596,2.272-2.75c0.669-0.145,2.311,0.537,3.109,0.717c2.354,0.54,3.849,0.91,6.215,1.436
		c1.072,0.237,2.329,0.229,3.11,0.596c1.046,0.493,2.581,3.1,3.348,4.065c1.181,1.482,2.264,2.826,3.345,3.945
		c2.772-19.071,5.164-38.52,8.13-57.394c1.24-1.247,2.551,1.632,3.468,2.869C62.078,22.437,76.249,40.966,88.897,57.826z
		 M62.472,70.138c1.553-0.234,2.195-2.633,3.946-2.871c0.949-0.125,2.714,0.476,4.066,0.719c4.125,0.742,8.721,1.599,12.316,2.274
		c1.7-3.441,3.394-6.887,5.023-10.403C74.647,41.948,61.302,24.205,47.89,6.532C52.711,27.771,57.699,48.853,62.472,70.138z
		 M44.781,21.357c-1.551,11.312-3.166,22.276-4.669,33.597c-0.204,1.537-1.121,5.481-0.834,6.813
		c0.129,0.601,1.107,1.438,1.675,2.155c4.138,5.213,7.878,10.104,11.955,14.825c2.888-2.533,5.891-4.949,8.609-7.65
		c-5.079-21.03-9.642-42.572-14.826-63.491C46.24,12.037,45.437,16.56,44.781,21.357z M82.802,74.688
		c1.717,0.752,3.453,1.487,5.261,2.15c2.56-2.002,5.063-4.142,7.647-6.345c0.572-0.479,2.058-1.971,2.869-1.911
		c0.694,0.061,1.201,1.021,1.795,1.678c1.221,1.347,2.3,2.298,3.467,3.468c0.532,0.528,0.982,1.459,1.678,1.315
		c2.039-20.282,4.628-40.649,6.455-60.744C102.348,34.523,92.479,54.51,82.802,74.688z M19.072,50.891
		c-3.982,5.066-7.887,10.21-11.84,15.301c3.443-2.845,7.133-5.838,10.639-8.846c1.16-0.994,2.342-2.513,3.587-2.988
		c2.249-0.856,4.806-0.369,7.413-1.199C25.651,52.364,22.33,51.654,19.072,50.891z M30.548,54.24
		c-2.673,0.434-5.436,0.781-8.129,1.197c3.793,21.669,7.977,42.96,11.836,64.564c7.33-11.325,14.386-22.918,21.405-34.554
		C47.309,75.027,39.125,64.437,30.548,54.24z M14.285,61.892c-2.34,1.993-4.752,4-6.692,5.977c0.007-0.075,0.017-0.14,0.117-0.114
		c2.174-0.966,4.364-1.821,6.574-2.76c2.13-0.896,4.267-2.23,6.698-2.386c0.841,2.075,1.046,4.375,1.434,6.573
		c2.607,14.694,5.473,29.896,8.129,44.357c0.196,1.065,0.111,2.331,0.838,3.229c1.515-0.241,0.531-2.188,0.356-3.11
		c-3.561-19.04-7.008-38.629-10.521-57.389C18.946,57.87,16.619,59.908,14.285,61.892z M81.011,73.969
		c0.225-0.672,0.935-1.421,0.833-2.032c-3.277-0.394-6.599-1.373-9.686-1.555C75.176,71.509,78.03,72.799,81.011,73.969z
		 M54.102,80.424c0.977,1.135,1.806,2.419,2.871,3.469c2.605-4.373,5.318-8.633,8.007-12.918c0.031-0.149,0.185-0.242-0.116-0.237
		C61.412,74.103,57.478,76.984,54.102,80.424z M71.796,90.23c4.662-3.717,9.91-7.871,14.47-12.077
		c-6.046-2.364-11.849-4.971-17.934-7.295C69.437,77.368,70.585,83.83,71.796,90.23z M98.346,70.858
		c-8.58,7.128-17.297,14.109-25.706,21.406c22.074,6.817,43.892,13.896,65.881,20.805C125.558,99.043,111.769,84.808,98.346,70.858z
		 M37.485,118.569c0.367,0.164,0.625-0.312,0.834-0.482c9.562-7.665,18.838-15.46,28.218-23.433
		c1.125-0.962,3.854-2.523,4.068-3.592c0.182-0.905-0.583-3.441-0.839-4.898c-0.813-4.639-1.923-11.369-2.867-14.824
		C57.15,87.138,47.353,102.886,37.485,118.569z M65.105,103.979c-1.597,2.636-3.183,5.249-4.664,7.768
		c-0.52,0.895-1.244,1.796-1.198,2.517c25.874-0.113,51.826-0.152,77.48-0.482c-21.745-6.794-43.331-13.739-65.042-20.563
		C69.44,96.547,67.301,100.347,65.105,103.979z M53.147,108.165c-4.688,3.889-9.455,7.905-13.988,11.718
		c-0.184,0.155-0.681,0.329-0.6,0.717c6.251-2.042,12.41-4.168,18.773-6.098c3.757-6.287,7.593-12.5,11.238-18.896
		c0.129,0,0.095-0.152-0.119-0.117C63.626,99.77,58.274,103.908,53.147,108.165z M25.17,110.193c1.021,1.372,2.05,2.729,3.105,4.069
		c-0.364-2.145-0.557-4.459-1.194-6.339C26.475,108.712,25.68,109.314,25.17,110.193z"/>
</g>
<g>
	<pattern  id="SVGID_1_" xlink:href="#SVGID_15_" patternTransform="matrix(1.3182 0 0 1.3182 11324.4844 47484.8789)">
	</pattern>
	<path fill="#6B6B6B" stroke="url(#SVGID_1_)" stroke-width="0.5616" stroke-miterlimit="10" d="M158.893,238.278h-2.475v-0.893
		h6.021v0.893h-2.484v7.239h-1.062V238.278L158.893,238.278z"/>
	<pattern  id="SVGID_2_" xlink:href="#SVGID_16_" patternTransform="matrix(1.3182 0 0 1.3182 11324.4844 47484.8789)">
	</pattern>
	<path fill="#6B6B6B" stroke="url(#SVGID_2_)" stroke-width="0.5616" stroke-miterlimit="10" d="M165.305,237.387v3.4h3.934v-3.4
		h1.062v8.131h-1.061v-3.812h-3.936v3.812h-1.062v-8.131H165.305z"/>
	<pattern  id="SVGID_3_" xlink:href="#SVGID_17_" patternTransform="matrix(1.3182 0 0 1.3182 11324.4844 47484.8789)">
	</pattern>
	<path fill="#6B6B6B" stroke="url(#SVGID_3_)" stroke-width="0.5616" stroke-miterlimit="10" d="M177.229,241.705h-3.147v2.935
		h3.522v0.879h-4.586v-8.129h4.404v0.879h-3.344v2.569h3.148v0.866L177.229,241.705L177.229,241.705z"/>
	<pattern  id="SVGID_4_" xlink:href="#SVGID_18_" patternTransform="matrix(1.3182 0 0 1.3182 11324.4844 47484.8789)">
	</pattern>
	<path fill="#6B6B6B" stroke="url(#SVGID_4_)" stroke-width="0.5616" stroke-miterlimit="10" d="M189.01,245.266
		c-0.375,0.189-1.158,0.386-2.146,0.386c-2.293,0-4.006-1.444-4.006-4.127c0-2.559,1.726-4.271,4.246-4.271
		c1,0,1.65,0.218,1.932,0.361l-0.268,0.854c-0.385-0.191-0.953-0.34-1.629-0.34c-1.906,0-3.172,1.222-3.172,3.355
		c0,2.003,1.146,3.268,3.111,3.268c0.652,0,1.305-0.131,1.727-0.336L189.01,245.266z"/>
	<pattern  id="SVGID_5_" xlink:href="#SVGID_19_" patternTransform="matrix(1.3182 0 0 1.3182 11324.4844 47484.8789)">
	</pattern>
	<path fill="#6B6B6B" stroke="url(#SVGID_5_)" stroke-width="0.5616" stroke-miterlimit="10" d="M191.242,237.494
		c0.529-0.095,1.304-0.169,2.018-0.169c1.123,0,1.856,0.218,2.352,0.665c0.398,0.361,0.64,0.916,0.64,1.557
		c0,1.062-0.675,1.772-1.521,2.063v0.035c0.615,0.217,0.988,0.794,1.183,1.641c0.267,1.134,0.458,1.92,0.628,2.231h-1.085
		c-0.132-0.24-0.312-0.929-0.528-1.942c-0.242-1.122-0.689-1.544-1.644-1.579h-0.989v3.521h-1.05L191.242,237.494L191.242,237.494z
		 M192.293,241.2h1.075c1.122,0,1.833-0.616,1.833-1.547c0-1.048-0.762-1.506-1.87-1.506c-0.507,0-0.854,0.036-1.038,0.084V241.2
		L192.293,241.2z"/>
	<pattern  id="SVGID_6_" xlink:href="#SVGID_20_" patternTransform="matrix(1.3182 0 0 1.3182 11324.4844 47484.8789)">
	</pattern>
	<path fill="#6B6B6B" stroke="url(#SVGID_6_)" stroke-width="0.5616" stroke-miterlimit="10" d="M202.842,241.705h-3.15v2.935h3.523
		v0.879h-4.585v-8.129h4.404v0.879h-3.345v2.569h3.15L202.842,241.705L202.842,241.705z"/>
	<pattern  id="SVGID_7_" xlink:href="#SVGID_21_" patternTransform="matrix(1.3182 0 0 1.3182 11324.4844 47484.8789)">
	</pattern>
	<path fill="#6B6B6B" stroke="url(#SVGID_7_)" stroke-width="0.5616" stroke-miterlimit="10" d="M206.802,242.961l-0.848,2.558
		h-1.084l2.774-8.129h1.254l2.777,8.129h-1.123l-0.869-2.558H206.802L206.802,242.961z M209.479,242.141l-0.81-2.343
		c-0.183-0.53-0.302-1.015-0.422-1.483h-0.022c-0.121,0.472-0.242,0.977-0.41,1.473l-0.795,2.354L209.479,242.141L209.479,242.141z"
		/>
	<pattern  id="SVGID_8_" xlink:href="#SVGID_22_" patternTransform="matrix(1.3182 0 0 1.3182 11324.4844 47484.8789)">
	</pattern>
	<path fill="#6B6B6B" stroke="url(#SVGID_8_)" stroke-width="0.5616" stroke-miterlimit="10" d="M214.391,238.278h-2.474v-0.893
		h6.021v0.893h-2.484v7.239h-1.062V238.278L214.391,238.278z"/>
	<pattern  id="SVGID_9_" xlink:href="#SVGID_23_" patternTransform="matrix(1.3182 0 0 1.3182 11324.4844 47484.8789)">
	</pattern>
	<path fill="#6B6B6B" stroke="url(#SVGID_9_)" stroke-width="0.5616" stroke-miterlimit="10" d="M220.802,237.387v8.131h-1.062
		v-8.131H220.802z"/>
	<pattern  id="SVGID_10_" xlink:href="#SVGID_24_" patternTransform="matrix(1.3182 0 0 1.3182 11324.4844 47484.8789)">
	</pattern>
	<path fill="#6B6B6B" stroke="url(#SVGID_10_)" stroke-width="0.5616" stroke-miterlimit="10" d="M225.328,245.518l-2.668-8.131
		h1.146l1.269,4.006c0.337,1.1,0.64,2.088,0.868,3.041h0.023c0.229-0.941,0.555-1.97,0.928-3.028l1.375-4.019h1.121l-2.906,8.131
		H225.328L225.328,245.518z"/>
	<pattern  id="SVGID_11_" xlink:href="#SVGID_25_" patternTransform="matrix(1.3182 0 0 1.3182 11324.4844 47484.8789)">
	</pattern>
	<path fill="#6B6B6B" stroke="url(#SVGID_11_)" stroke-width="0.5616" stroke-miterlimit="10" d="M235.383,241.705h-3.148v2.935
		h3.523v0.879h-4.588v-8.129h4.403v0.879h-3.343v2.569h3.146L235.383,241.705L235.383,241.705L235.383,241.705z"/>
	<pattern  id="SVGID_12_" xlink:href="#SVGID_26_" patternTransform="matrix(1.3182 0 0 1.3182 11324.4844 47484.8789)">
	</pattern>
	<path fill="#6B6B6B" stroke="url(#SVGID_12_)" stroke-width="0.5616" stroke-miterlimit="10" d="M241.477,237.387h4.381v0.879
		h-3.316v2.702h3.062v0.869h-3.062v3.681h-1.062L241.477,237.387L241.477,237.387z"/>
	<pattern  id="SVGID_13_" xlink:href="#SVGID_27_" patternTransform="matrix(1.3182 0 0 1.3182 11324.4844 47484.8789)">
	</pattern>
	<path fill="#6B6B6B" stroke="url(#SVGID_13_)" stroke-width="0.5616" stroke-miterlimit="10" d="M252.473,241.705h-3.149v2.935
		h3.521v0.879h-4.582v-8.129h4.402v0.879h-3.344v2.569h3.15v0.866L252.473,241.705L252.473,241.705z"/>
	<pattern  id="SVGID_14_" xlink:href="#SVGID_28_" patternTransform="matrix(1.3182 0 0 1.3182 11324.4844 47484.8789)">
	</pattern>
	<path fill="#6B6B6B" stroke="url(#SVGID_14_)" stroke-width="0.5616" stroke-miterlimit="10" d="M256.555,245.518l-2.062-8.131
		h1.107l0.967,4.112c0.24,1.017,0.459,2.026,0.603,2.812h0.024c0.135-0.811,0.387-1.773,0.666-2.823l1.084-4.102h1.101l0.988,4.125
		c0.229,0.97,0.448,1.933,0.565,2.788h0.023c0.169-0.896,0.398-1.797,0.65-2.812l1.074-4.102h1.071l-2.304,8.133h-1.102
		l-1.025-4.234c-0.254-1.037-0.422-1.835-0.531-2.654h-0.021c-0.134,0.811-0.326,1.606-0.627,2.654l-1.16,4.234h-1.095
		L256.555,245.518L256.555,245.518z"/>
</g>
<rect x="264.695" y="164.326" fill="none" width="72" height="72.001"/>
</svg>
