<?xml version="1.0" encoding="utf-8"?>
<!-- Generator: Adobe Illustrator 15.0.0, SVG Export Plug-In . SVG Version: 6.00 Build 0)  -->
<!DOCTYPE svg PUBLIC "-//W3C//DTD SVG 1.1//EN" "http://www.w3.org/Graphics/SVG/1.1/DTD/svg11.dtd">
<svg version="1.1" id="Layer_1" xmlns="http://www.w3.org/2000/svg" xmlns:xlink="http://www.w3.org/1999/xlink" x="0px" y="0px"
	 width="260px" height="260px" viewBox="0 0 260 260" enable-background="new 0 0 260 260" xml:space="preserve">
<path fill="#58595B" d="M260,231.2c0,15.905-12.895,28.8-28.8,28.8H28.8C12.895,260,0,247.105,0,231.2V28.8
	C0,12.894,12.895,0,28.8,0h202.4C247.105,0,260,12.894,260,28.8V231.2z"/>
<g>
	<path fill="#FFFFFF" d="M178.654,139.086c-0.642-0.746-2.229-0.818-3.316,0.642l-0.275,0.6
		c-24.593,26.643-24.865-3.007-24.865-3.007c-0.14-31.562-18.034-8.881-18.034-8.881c-1.58,1.751-2.04-0.924-1.802-5.76
		c4.642-4.288,12.605-12.083,13.96-13.398c7.047-6.83,17.079-22.232,18.228-35.616c0,0,1.53-8.764-1.816-10.688
		c-2.266-1.302-6.012-1.715-10.331,0.115c-4.451,1.886-12.781,6.56-17.535,17.625c-3.721,8.668-9.253,34.924-8.563,43.218
		c0,0,0.003,0.116,0.012,0.31c-3.65,2.891-7.941,5.901-12.885,9.368c-0.773-4.477-1.4-8.043-1.4-8.043
		c-1.641-7.786-8.471-4.779-8.471-4.779s-0.462-0.084-0.443,1.468c-6.499,5.355-15.775,5.754-22.336,11.337
		c-7.8,6.636-9.114,13.999-9.072,23.838c0.01,2.758,4.282,2.758,4.27,0c-0.018-4.73-0.198-9.421,1.776-13.848
		c1.819-4.091,6.028-7.188,9.727-9.43c5.221-3.167,11.232-4.076,16.342-7.22c0.123,0.551,0.259,1.13,0.42,1.777
		c0.728,2.922,1.614,6.257,2.378,9.698c-0.064,0.05-0.126,0.093-0.195,0.139c-12.841,9.153-26.365,29.375-26.365,40.578
		c0,11.204,13.251,10.797,13.251,10.797c19.127,0,22.953-37.027,22.953-38.669c0-0.87-1.188-8.026-2.305-14.568l12.56-9
		c0.251,3.321,0.77,7.788,1.746,8.798c1.595,1.649,2.619,2.392,4.781-0.454c2.164-2.851,9.165-10.648,9.165-10.648
		s3.987-4.838,5.013,3.928c0,0,0.537,5.269,0.662,9.668v0.744c0.07,1.127,0.112,2.34,0.119,3.652c0,0-2.038,29.304,28.701,3.005
		l3.196-4.194C177.902,142.188,179.295,139.837,178.654,139.086 M105.932,156.175c-1.64,7.788-6.831,28.129-16.394,28.559
		c0,0-7.849,0.816-7.225-4.674c0.608-5.37,5.5-25.295,22.952-38.537C106.268,146.751,106.809,151.996,105.932,156.175
		 M137.488,83.218c3.964-11.066,10.909-15.742,14.618-17.625c3.606-1.828,6.42,0,6.695,2.594c0.271,2.595-0.817,9.158-0.817,9.158
		c-0.957,13.386-19.673,32.516-25.549,39.344c-0.56,0.646-1.151,1.285-1.77,1.916C131.755,107.311,135.077,89.952,137.488,83.218
		 M188.646,219.754c3.566-3.466,6.77-7.197,9.696-11.111c5.188-1.926,10.345-3.905,15.468-5.889
		c10.788-4.167,20.511-9.123,27.645-18.006c6.477-8.061,10.335-17.81,11.689-27.781c3.22-23.664-6.643-48.694-19.843-68.665
		c-2.704-22.22-14.148-40.936-34.468-53.251c-21.954-13.31-48.919-20.974-75.151-19.741c-14.855,0.7-29.078,4.285-41.9,10.592
		c-14.524-0.265-28.885,1.813-40.38,10.323C23.162,49.729,14.961,74.03,11.616,94.927c-2.54,10.341-3.733,20.945-4.892,31.483
		c-1.421,12.993-2.621,26.328,0.522,39.196c2.803,11.489,9.361,21.707,17.033,30.912c5.234,6.284,11.181,12.266,18.436,16.407
		c4.581,4.666,9.795,8.883,15.818,12.489C96.948,248.429,155.081,252.427,188.646,219.754 M44.26,209.568
		c-10.6-11.218-17.457-25.105-22.308-40.017c-7.108-21.871-10.296-45.079-7.729-67.885c0.211-1.861,0.472-3.765,0.76-5.676
		c4.893-19.181,14.888-35.251,33.826-45.836c17.609-9.838,38.574-16.663,59.376-18.719c9.094,0.99,18.202,2.25,27.214,3.932
		c-11.403-0.302-22.958,0.448-33.812,3.836c-9.75,3.042-18.7,7.946-26.756,13.881c-19.976,5.054-40.21,15.069-51.305,31.974
		c-12.726,19.383-8.666,43.939,1.919,63.318c2.308,4.227,4.977,8.264,7.927,12.111c1.548,8.76,4.08,17.248,7.681,24.995
		c7.284,15.666,20.641,25.277,36.127,32.025c-3.459-0.474-6.933-0.925-10.431-1.315C58.302,215.239,50.91,213.228,44.26,209.568
		 M210.329,177.005c-17.402,14.993-42.725,21.739-65.797,23.827c-40.946,3.698-83.467-10.43-107.762-41.671
		c-2.189-13.371-1.922-27.277,0.173-39.571c3.619-21.245,14.663-41.112,30.992-56.237c2.782-2.577,5.73-5.021,8.811-7.312
		c1.768-0.436,3.534-0.849,5.289-1.208c43.128-8.879,91.357,2.189,124.336,29.929c9.334,7.85,17.506,17.214,22.861,27.73
		c-1.999,18.276-7.671,36.832-13.342,53.146c-1.102,3.155-2.261,6.317-3.507,9.456C211.709,175.736,211.046,176.387,210.329,177.005
		 M32.276,152.86c-0.809-1.24-1.596-2.501-2.351-3.787c-11.307-19.271-16.079-44.521-2.293-63.813
		c9.396-13.157,24.461-21.615,40.392-26.746C51.567,72.749,39.68,91.702,34.717,112.157C31.625,124.895,30.76,139.046,32.276,152.86
		 M135.35,38.831c7.849,0.191,15.774,0.847,23.577,2.104c4.309,1.264,8.574,2.663,12.769,4.224
		c20.741,7.732,39.203,19.8,52.602,36.611c2.371,4.537,4.269,9.348,5.646,14.41c0.104,3.38,0.033,6.8-0.18,10.244
		c-16.245-28.083-52.342-47.278-83.898-54.186c-20.194-4.418-41.402-4.935-61.762-1.183c3.736-2.286,7.638-4.329,11.696-6.047
		C108.255,39.737,121.815,38.504,135.35,38.831 M215.447,177.104c0.38-0.369,0.761-0.737,1.133-1.118
		c-0.908,1.76-1.862,3.508-2.842,5.245C214.325,179.861,214.895,178.481,215.447,177.104 M218.925,167.85
		c0.361-1.027,0.722-2.051,1.067-3.072c4.955-14.529,9.839-29.812,12.322-45.248c0.12,0.325,0.23,0.654,0.347,0.979
		c-0.454,13.749-3.954,27.413-9.141,40.351C222.148,163.275,220.621,165.606,218.925,167.85 M210.527,63.359
		c-6.132-4.915-12.749-9.196-19.74-12.909c4.498,2.124,8.834,4.568,12.934,7.416c1.787,1.244,3.455,2.552,5.068,3.892
		C209.37,62.291,209.964,62.813,210.527,63.359 M156.989,37.165c-8.827-2.507-17.892-4.48-27.036-6.043
		c12.688,0.919,25.463,3.737,37.599,7.963C164.062,38.32,160.538,37.68,156.989,37.165 M67.53,37.979
		c4.449-3.361,9.148-6.268,14.056-8.714c4.543,0.079,9.106,0.393,13.592,0.805C85.729,31.884,76.44,34.585,67.53,37.979
		 M47.633,190.035c-4.358-7.125-7.427-15.233-9.435-23.722c9.416,10.53,21.133,19.294,34.096,25.648
		c22.379,10.97,48.377,14.593,73.374,12.175c22.189-2.146,46.078-8.415,63.717-21.847c-3.271,7.391-7.094,14.575-11.712,21.264
		c-0.881,0.956-1.786,1.883-2.708,2.803c-17.006,6.249-34.388,11.777-52.39,14.546c-16.901,2.6-33.222,1.009-49.638-1.209
		C74.935,214.063,57.305,205.848,47.633,190.035 M133.527,225.353c18.913-1.751,37.141-6.903,54.933-13.135
		c-3.164,2.565-6.524,4.921-10.113,7.001c-19.229,11.121-41.461,10.859-62.721,6.456
		C121.549,225.964,127.494,225.909,133.527,225.353 M250.187,147.867c0.044,10.88-2.701,21.771-8.806,31.095
		c-6.747,10.293-16.852,16.064-28.516,20.591c-3.347,1.297-6.707,2.599-10.086,3.875c5.857-6.727,10.864-14.142,15.077-21.71
		c3.853-6.918,7.322-14.182,10.207-21.67c3.816-7.412,6.298-15.45,7.703-23.668c0.036,0.829,0.06,1.655,0.06,2.492
		c-0.005,1.601,2.633,1.601,2.657,0c0.081-4.85-0.43-9.536-1.437-14.058c0.091-1.707,0.162-3.412,0.176-5.11
		c0.073-7.783-0.696-15.373-2.431-22.624C243.944,112.699,250.11,130.573,250.187,147.867 M198.91,39.097
		c16.31,10.386,24.986,24.164,28.742,39.477c-3.271-5.831-7.489-11.257-12.728-16.182c-0.169-0.168-0.347-0.328-0.516-0.501
		c-0.084-0.076-0.16-0.156-0.244-0.233c-2.816-2.793-5.885-5.413-9.237-7.8c-20.412-14.534-47.935-23.655-73.352-25.89
		c-7.653-0.673-15.375-0.563-23.05,0.178c-6.438-0.751-13.199-1.546-20.021-1.97C123.74,12.033,167.149,18.876,198.91,39.097
		 M41.238,40.691c9.595-8.152,21.673-10.928,34.219-11.377c-5.149,3.015-10.038,6.488-14.596,10.434
		c-0.396,0.344-0.501,0.746-0.425,1.115c-2.322,1.002-4.624,2.025-6.881,3.108C39.06,50.915,28.122,60.453,20.681,72.608
		C24.983,60.414,31.524,48.944,41.238,40.691 M32.75,200.822c-8.417-8.488-16.009-18.688-20.144-29.675
		c-4.29-11.396-4.277-23.661-3.301-35.562c0.244-2.917,0.505-5.836,0.797-8.763c0.886,14.787,3.85,29.486,8.443,43.609
		c3.55,10.925,8.162,21.354,14.478,30.654C32.936,200.994,32.843,200.919,32.75,200.822 M62.107,223.607
		c-3.509-2.007-6.725-4.226-9.723-6.599c5.04,1.44,10.312,2.068,15.535,2.627c7.98,0.862,15.854,1.999,23.758,3.296
		c1.329,0.431,2.669,0.849,4.009,1.254c24.377,7.372,51.683,12.457,76.064,2.35c3.235-1.34,6.312-2.924,9.262-4.665
		c-14.977,12.101-34.077,17.99-54.074,18.215C104.595,240.333,81.206,234.501,62.107,223.607 M105.646,108.479
		c0,1.887-1.451,3.418-3.233,3.418c-1.787,0-3.234-1.531-3.234-3.418c0-1.888,1.448-3.418,3.234-3.418
		C104.195,105.062,105.646,106.591,105.646,108.479"/>
</g>
<g>
	<rect x="375.818" y="15.181" fill="#58595B" width="450.088" height="306"/>
</g>
</svg>
