<?xml version="1.0" encoding="utf-8"?>
<!-- Generator: Adobe Illustrator 15.0.0, SVG Export Plug-In  -->
<!DOCTYPE svg PUBLIC "-//W3C//DTD SVG 1.1//EN" "http://www.w3.org/Graphics/SVG/1.1/DTD/svg11.dtd" [
	<!ENTITY ns_flows "http://ns.adobe.com/Flows/1.0/">
]>
<svg version="1.1"
	 xmlns="http://www.w3.org/2000/svg" xmlns:xlink="http://www.w3.org/1999/xlink" xmlns:a="http://ns.adobe.com/AdobeSVGViewerExtensions/3.0/"
	 x="0px" y="0px" width="320px" height="288px" viewBox="-3.583 -0.137 320 288"
	 overflow="visible" enable-background="new -3.583 -0.137 320 288" xml:space="preserve">
<defs>
	
		<pattern  x="-58.302" y="-0.137" width="72" height="72" patternUnits="userSpaceOnUse" id="New_Pattern_Swatch_1" viewBox="0 -72 72 72" overflow="visible">
		<g>
			<polygon fill="none" points="0,0 72,0 72,-72 0,-72 			"/>
			<polygon fill="#58595B" points="72,0 0,0 0,-72 72,-72 			"/>
		</g>
	</pattern>
</defs>
<path fill="#58595B" stroke="url(#New_Pattern_Swatch_1)" stroke-width="2" stroke-miterlimit="10" d="M218.012,156.077
	c-0.801-0.933-2.791-1.021-4.148,0.806l-0.346,0.749c-30.78,33.345-31.119-3.763-31.119-3.763
	c-0.175-39.503-22.573-11.115-22.573-11.115c-1.977,2.189-2.554-1.159-2.256-7.208c5.811-5.366,15.778-15.124,17.475-16.77
	c8.82-8.549,21.377-27.826,22.812-44.577c0,0,1.915-10.971-2.273-13.377c-2.837-1.63-7.525-2.146-12.93,0.146
	c-5.573,2.36-15.994,8.208-21.947,22.057c-4.659,10.848-11.583,43.711-10.717,54.089c0,0,0.004,0.145,0.013,0.39
	c-4.568,3.618-9.937,7.388-16.125,11.723c-0.969-5.603-1.752-10.064-1.752-10.064c-2.054-9.745-10.603-5.981-10.603-5.981
	s-0.579-0.105-0.557,1.835c-8.134,6.702-19.744,7.203-27.955,14.188c-9.764,8.307-11.407,17.522-11.356,29.839
	c0.013,3.45,5.36,3.45,5.345,0c-0.023-5.92-0.248-11.792,2.223-17.33c2.279-5.123,7.545-9,12.174-11.802
	c6.536-3.965,14.059-5.104,20.454-9.036c0.152,0.689,0.325,1.413,0.525,2.221c0.911,3.658,2.02,7.833,2.977,12.138
	c-0.081,0.063-0.158,0.115-0.244,0.173c-16.071,11.458-32.997,36.766-32.997,50.79c0,14.021,16.586,13.512,16.586,13.512
	c23.938,0,28.728-46.347,28.728-48.399c0-1.086-1.487-10.044-2.885-18.23l15.719-11.267c0.313,4.156,0.963,9.746,2.187,11.013
	c1.997,2.066,3.276,2.996,5.982-0.567c2.707-3.566,11.474-13.328,11.474-13.328s4.989-6.056,6.273,4.918
	c0,0,0.668,6.592,0.83,12.096v0.935c0.087,1.41,0.14,2.931,0.146,4.572c0,0-2.549,36.675,35.921,3.761l4.005-5.252
	C217.074,159.959,218.814,157.018,218.012,156.077 M126.993,177.462c-2.051,9.749-8.548,35.207-20.517,35.749
	c0,0-9.824,1.018-9.043-5.853c0.762-6.722,6.884-31.656,28.727-48.231C127.416,165.672,128.094,172.235,126.993,177.462
	 M166.493,86.153c4.959-13.849,13.65-19.701,18.293-22.058c4.515-2.285,8.035,0,8.38,3.245c0.341,3.249-1.024,11.463-1.024,11.463
	c-1.196,16.753-24.622,40.696-31.977,49.244c-0.699,0.807-1.442,1.609-2.215,2.396C159.313,116.309,163.472,94.583,166.493,86.153
	 M230.521,257.042c4.46-4.34,8.469-9.009,12.134-13.909c6.49-2.41,12.945-4.89,19.361-7.368c13.5-5.219,25.668-11.419,34.596-22.536
	c8.11-10.089,12.935-22.295,14.629-34.775c4.029-29.616-8.31-60.943-24.832-85.936c-3.385-27.812-17.71-51.238-43.139-66.65
	C215.79,9.212,182.042-0.381,149.21,1.162c-18.592,0.875-36.392,5.36-52.44,13.257c-18.179-0.332-36.153,2.269-50.541,12.918
	c-22.827,16.903-33.092,47.32-37.28,73.472c-3.178,12.943-4.672,26.218-6.123,39.405c-1.778,16.262-3.278,32.951,0.653,49.059
	c3.506,14.38,11.718,27.168,21.318,38.688c6.549,7.866,13.994,15.353,23.073,20.539c5.733,5.837,12.259,11.117,19.799,15.629
	C115.75,292.928,188.509,297.934,230.521,257.042 M49.807,244.295c-13.268-14.042-21.85-31.425-27.922-50.083
	c-8.898-27.376-12.887-56.42-9.673-84.966c0.263-2.33,0.592-4.712,0.952-7.104C19.29,78.134,31.798,58.022,55.5,44.772
	c22.038-12.312,48.277-20.854,74.313-23.429c11.382,1.239,22.782,2.816,34.058,4.924c-14.27-0.377-28.734,0.559-42.316,4.801
	c-12.203,3.806-23.405,9.944-33.487,17.373C63.065,54.769,37.743,67.3,23.856,88.459c-15.929,24.263-10.846,54.997,2.401,79.25
	c2.889,5.289,6.23,10.341,9.92,15.156c1.939,10.962,5.106,21.584,9.613,31.28c9.117,19.612,25.833,31.637,45.216,40.086
	c-4.332-0.595-8.678-1.16-13.055-1.645C67.383,251.39,58.129,248.875,49.807,244.295 M257.657,203.537
	c-21.781,18.768-53.475,27.211-82.353,29.822c-51.247,4.63-104.464-13.055-134.87-52.153c-2.738-16.734-2.405-34.142,0.217-49.523
	c4.528-26.593,18.353-51.458,38.79-70.387c3.483-3.227,7.172-6.286,11.026-9.153c2.214-0.543,4.423-1.062,6.621-1.511
	c53.978-11.112,114.342,2.739,155.616,37.456c11.681,9.826,21.909,21.545,28.611,34.708c-2.502,22.875-9.6,46.097-16.697,66.516
	c-1.378,3.952-2.834,7.905-4.389,11.838C259.382,201.952,258.552,202.764,257.657,203.537 M34.809,173.318
	c-1.013-1.551-1.997-3.127-2.94-4.739c-14.151-24.119-20.124-55.72-2.872-79.87C40.756,72.242,59.61,61.658,79.55,55.236
	c-20.598,17.815-35.475,41.537-41.688,67.14C33.992,138.317,32.91,156.027,34.809,173.318 M163.813,30.599
	c9.825,0.239,19.746,1.062,29.51,2.634c5.394,1.583,10.73,3.334,15.983,5.287c25.958,9.676,49.062,24.782,65.834,45.821
	c2.971,5.678,5.342,11.701,7.067,18.036c0.129,4.23,0.041,8.51-0.228,12.82c-20.331-35.149-65.509-59.172-105.008-67.818
	c-25.272-5.53-51.817-6.177-77.298-1.482c4.673-2.86,9.56-5.416,14.638-7.569C129.903,31.735,146.874,30.19,163.813,30.599
	 M264.064,203.66c0.475-0.461,0.948-0.924,1.415-1.4c-1.135,2.204-2.33,4.392-3.557,6.571
	C262.658,207.112,263.37,205.384,264.064,203.66 M268.415,192.077c0.454-1.284,0.904-2.566,1.339-3.846
	c6.199-18.185,12.312-37.312,15.419-56.631c0.151,0.407,0.289,0.82,0.431,1.228c-0.565,17.205-4.948,34.308-11.437,50.501
	C272.453,186.353,270.537,189.273,268.415,192.077 M257.906,61.3c-7.678-6.152-15.954-11.508-24.707-16.157
	c5.63,2.659,11.054,5.718,16.184,9.282c2.239,1.557,4.326,3.193,6.345,4.871C256.456,59.962,257.199,60.616,257.906,61.3
	 M190.899,28.515c-11.053-3.137-22.396-5.608-33.839-7.562c15.879,1.148,31.865,4.675,47.055,9.967
	C199.751,29.959,195.336,29.159,190.899,28.515 M78.933,29.535c5.568-4.206,11.45-7.844,17.592-10.906
	c5.687,0.096,11.398,0.489,17.012,1.007C101.709,21.905,90.081,25.286,78.933,29.535 M54.028,219.845
	c-5.454-8.916-9.295-19.064-11.809-29.69c11.785,13.182,26.449,24.148,42.674,32.102c28.008,13.729,60.546,18.266,91.833,15.236
	c27.769-2.686,57.669-10.532,79.747-27.343c-4.097,9.25-8.879,18.238-14.659,26.611c-1.104,1.197-2.234,2.354-3.388,3.507
	c-21.285,7.823-43.042,14.741-65.572,18.207c-21.152,3.251-41.581,1.26-62.127-1.514C88.2,249.92,66.133,239.637,54.028,219.845
	 M161.531,264.047c23.673-2.189,46.488-8.637,68.755-16.441c-3.959,3.212-8.168,6.158-12.657,8.766
	c-24.067,13.917-51.892,13.592-78.501,8.078C146.542,264.812,153.982,264.745,161.531,264.047 M307.54,167.07
	c0.057,13.616-3.379,27.247-11.02,38.918c-8.447,12.882-21.091,20.104-35.689,25.772c-4.191,1.62-8.397,3.247-12.625,4.849
	c7.333-8.424,13.601-17.702,18.87-27.174c4.824-8.658,9.165-17.752,12.773-27.124c4.777-9.272,7.883-19.334,9.644-29.619
	c0.043,1.037,0.074,2.072,0.074,3.12c-0.005,2.003,3.295,2.003,3.326,0c0.103-6.07-0.54-11.936-1.798-17.593
	c0.113-2.138,0.203-4.271,0.219-6.397c0.092-9.739-0.869-19.24-3.04-28.313C299.73,123.052,307.448,145.421,307.54,167.07
	 M243.362,30.932c20.414,12.999,31.276,30.245,35.976,49.41c-4.095-7.297-9.372-14.089-15.933-20.251
	c-0.21-0.213-0.433-0.412-0.642-0.629c-0.105-0.094-0.201-0.194-0.306-0.291c-3.529-3.495-7.368-6.775-11.565-9.763
	c-25.542-18.19-59.993-29.605-91.803-32.403c-9.579-0.843-19.245-0.705-28.851,0.222c-8.057-0.939-16.52-1.935-25.059-2.462
	C149.282-2.939,203.613,5.625,243.362,30.932 M46.025,32.929c12.011-10.204,27.126-13.677,42.828-14.24
	c-6.443,3.772-12.563,8.123-18.265,13.06c-0.497,0.429-0.629,0.933-0.533,1.396c-2.904,1.253-5.787,2.535-8.612,3.888
	c-18.144,8.692-31.834,20.631-41.146,35.844C25.681,57.613,33.866,43.256,46.025,32.929 M35.4,233.346
	c-10.535-10.622-20.036-23.389-25.213-37.138c-5.369-14.263-5.351-29.614-4.129-44.51c0.303-3.651,0.63-7.303,0.997-10.964
	c1.109,18.506,4.819,36.903,10.569,54.579c4.443,13.673,10.214,26.726,18.12,38.367C35.633,233.562,35.518,233.468,35.4,233.346
	 M72.144,261.862c-4.392-2.507-8.417-5.282-12.169-8.253c6.308,1.804,12.905,2.588,19.443,3.287
	c9.988,1.079,19.842,2.503,29.735,4.127c1.664,0.535,3.341,1.062,5.016,1.568c30.511,9.225,64.688,15.592,95.203,2.939
	c4.051-1.678,7.898-3.66,11.591-5.838c-18.741,15.145-42.651,22.513-67.678,22.797C125.32,282.797,96.046,275.498,72.144,261.862
	 M126.636,117.771c0,2.362-1.816,4.278-4.048,4.278c-2.236,0-4.048-1.916-4.048-4.278c0-2.364,1.812-4.278,4.048-4.278
	C124.82,113.493,126.636,115.407,126.636,117.771"/>
</svg>
