<?xml version="1.0" encoding="utf-8"?>
<!-- Generator: Adobe Illustrator 15.0.0, SVG Export Plug-In . SVG Version: 6.00 Build 0)  -->
<!DOCTYPE svg PUBLIC "-//W3C//DTD SVG 1.1//EN" "http://www.w3.org/Graphics/SVG/1.1/DTD/svg11.dtd">
<svg version="1.1" id="Place_your_artwork_here" xmlns="http://www.w3.org/2000/svg" xmlns:xlink="http://www.w3.org/1999/xlink"
	 x="0px" y="0px" width="274.791px" height="129.504px" viewBox="0 0 274.791 129.504" enable-background="new 0 0 274.791 129.504"
	 xml:space="preserve">
<g display="none">
	<rect x="-62.312" y="-109.8" display="inline" fill="#58595B" width="450.089" height="306"/>
</g>
<g>
	<path fill="#FFFFFF" d="M98.606,70.214c-0.358-0.417-1.247-0.457-1.855,0.36l-0.154,0.335C82.832,85.821,82.68,69.227,82.68,69.227
		c-0.078-17.666-10.094-4.971-10.094-4.971c-0.884,0.979-1.142-0.518-1.009-3.224c2.599-2.399,7.056-6.763,7.814-7.499
		c3.945-3.823,9.56-12.443,10.202-19.934c0,0,0.856-4.906-1.017-5.982c-1.269-0.729-3.365-0.96-5.782,0.065
		c-2.492,1.056-7.153,3.671-9.815,9.864c-2.083,4.851-5.179,19.547-4.792,24.188c0,0,0.002,0.065,0.006,0.174
		c-2.043,1.618-4.444,3.304-7.211,5.243c-0.433-2.506-0.784-4.501-0.784-4.501c-0.918-4.358-4.741-2.675-4.741-2.675
		s-0.259-0.047-0.249,0.821c-3.637,2.997-8.829,3.221-12.501,6.345c-4.366,3.715-5.101,7.836-5.078,13.343
		c0.006,1.543,2.397,1.543,2.39,0c-0.01-2.647-0.111-5.273,0.994-7.75c1.019-2.29,3.374-4.024,5.444-5.277
		c2.923-1.773,6.287-2.282,9.147-4.041c0.068,0.308,0.145,0.632,0.235,0.993c0.407,1.636,0.903,3.503,1.331,5.428
		c-0.036,0.028-0.071,0.052-0.109,0.077c-7.187,5.124-14.756,16.441-14.756,22.713c0,6.27,7.417,6.042,7.417,6.042
		c10.705,0,12.847-20.725,12.847-21.643c0-0.486-0.665-4.492-1.29-8.153l7.029-5.038c0.14,1.859,0.431,4.359,0.978,4.925
		c0.893,0.924,1.465,1.34,2.675-0.254c1.211-1.595,5.131-5.96,5.131-5.96s2.231-2.708,2.805,2.199c0,0,0.3,2.948,0.371,5.41v0.417
		c0.04,0.631,0.063,1.311,0.066,2.045c0,0-1.14,16.4,16.064,1.682l1.79-2.349C98.187,71.95,98.965,70.635,98.606,70.214
		 M57.904,79.778c-0.917,4.359-3.823,15.744-9.175,15.985c0,0-4.393,0.456-4.044-2.616c0.341-3.006,3.078-14.157,12.846-21.569
		C58.093,74.505,58.396,77.44,57.904,79.778 M75.567,38.945c2.218-6.193,6.105-8.81,8.181-9.864c2.018-1.022,3.593,0,3.747,1.451
		c0.153,1.453-0.458,5.126-0.458,5.126c-0.535,7.492-11.01,18.199-14.299,22.021c-0.313,0.361-0.645,0.72-0.991,1.072
		C72.357,52.43,74.217,42.715,75.567,38.945 M104.2,115.364c1.995-1.94,3.788-4.028,5.426-6.22c2.903-1.077,5.789-2.186,8.658-3.295
		c6.038-2.333,11.479-5.106,15.471-10.078c3.627-4.511,5.784-9.969,6.542-15.55c1.802-13.244-3.716-27.253-11.105-38.43
		c-1.514-12.437-7.919-22.913-19.29-29.805C97.613,4.538,82.521,0.248,67.839,0.938c-8.314,0.391-16.274,2.397-23.451,5.928
		c-8.129-0.148-16.167,1.015-22.601,5.777C11.579,20.202,6.989,33.804,5.116,45.499C3.695,51.287,3.027,57.223,2.378,63.12
		C1.583,70.393,0.912,77.855,2.67,85.059c1.568,6.43,5.24,12.149,9.533,17.301c2.929,3.517,6.258,6.864,10.318,9.184
		c2.564,2.61,5.482,4.972,8.854,6.989C52.876,131.412,85.413,133.65,104.2,115.364 M23.387,109.664
		c-5.933-6.279-9.771-14.052-12.486-22.397c-3.979-12.241-5.763-25.23-4.326-37.995c0.118-1.042,0.265-2.107,0.426-3.177
		c2.739-10.736,8.333-19.73,18.932-25.655c9.855-5.506,21.589-9.326,33.232-10.477c5.09,0.554,10.188,1.259,15.231,2.202
		c-6.382-0.169-12.85,0.25-18.924,2.147c-5.457,1.702-10.466,4.447-14.975,7.769c-11.181,2.829-22.505,8.433-28.715,17.895
		c-7.123,10.85-4.85,24.594,1.074,35.44c1.292,2.365,2.786,4.624,4.436,6.777c0.867,4.903,2.283,9.653,4.299,13.989
		c4.077,8.77,11.552,14.147,20.22,17.925c-1.937-0.265-3.881-0.518-5.838-0.735C31.247,112.837,27.109,111.712,23.387,109.664
		 M116.335,91.438c-9.741,8.392-23.913,12.167-36.827,13.336c-22.917,2.07-46.715-5.838-60.312-23.323
		c-1.225-7.483-1.076-15.267,0.097-22.146c2.025-11.892,8.207-23.011,17.346-31.476c1.558-1.443,3.207-2.811,4.931-4.093
		c0.99-0.243,1.978-0.475,2.961-0.676c24.138-4.969,51.132,1.225,69.589,16.75c5.224,4.394,9.798,9.635,12.795,15.521
		c-1.119,10.229-4.293,20.614-7.467,29.745c-0.616,1.768-1.267,3.536-1.962,5.294C117.107,90.728,116.736,91.092,116.335,91.438
		 M16.68,77.924c-0.453-0.693-0.893-1.399-1.315-2.12c-6.328-10.785-8.999-24.917-1.284-35.716
		c5.259-7.364,13.69-12.097,22.607-14.969c-9.211,7.967-15.864,18.575-18.642,30.024C16.315,62.272,15.831,70.192,16.68,77.924
		 M74.369,14.102c4.393,0.107,8.83,0.475,13.197,1.178c2.411,0.708,4.798,1.491,7.147,2.364
		c11.608,4.327,21.941,11.082,29.44,20.491c1.328,2.539,2.389,5.232,3.16,8.065c0.058,1.892,0.019,3.806-0.101,5.733
		c-9.092-15.718-29.295-26.461-46.958-30.327c-11.302-2.473-23.172-2.762-34.567-0.663c2.09-1.279,4.275-2.422,6.546-3.385
		C59.205,14.61,66.794,13.919,74.369,14.102 M119.2,91.492c0.212-0.206,0.424-0.413,0.633-0.626
		c-0.508,0.986-1.042,1.964-1.591,2.938C118.571,93.036,118.89,92.264,119.2,91.492 M121.146,86.312
		c0.202-0.574,0.404-1.147,0.598-1.719c2.773-8.132,5.506-16.686,6.896-25.325c0.067,0.182,0.128,0.367,0.192,0.549
		c-0.253,7.694-2.213,15.342-5.114,22.583C122.951,83.753,122.094,85.059,121.146,86.312 M116.446,27.831
		c-3.433-2.751-7.135-5.146-11.049-7.225c2.518,1.189,4.944,2.557,7.238,4.151c1.001,0.696,1.935,1.428,2.837,2.178
		C115.798,27.233,116.13,27.525,116.446,27.831 M86.481,13.17c-4.942-1.403-10.014-2.508-15.132-3.382
		c7.101,0.514,14.25,2.091,21.043,4.457C90.44,13.816,88.466,13.458,86.481,13.17 M36.412,13.626c2.49-1.881,5.12-3.508,7.867-4.877
		c2.543,0.043,5.097,0.219,7.607,0.45C46.597,10.214,41.397,11.726,36.412,13.626 M25.275,98.73
		c-2.439-3.987-4.157-8.525-5.281-13.277c5.27,5.895,11.828,10.799,19.083,14.355c12.525,6.14,27.076,8.168,41.066,6.814
		c12.419-1.201,25.79-4.71,35.662-12.228c-1.831,4.137-3.97,8.157-6.555,11.901c-0.493,0.535-0.999,1.053-1.515,1.568
		c-9.518,3.498-19.248,6.592-29.323,8.142c-9.459,1.454-18.594,0.563-27.782-0.677C40.556,112.18,30.688,107.581,25.275,98.73
		 M73.349,118.497c10.585-0.98,20.788-3.862,30.745-7.352c-1.77,1.436-3.652,2.754-5.66,3.919
		c-10.762,6.224-23.205,6.078-35.104,3.613C66.646,118.839,69.973,118.809,73.349,118.497 M138.642,75.13
		c0.025,6.089-1.511,12.185-4.928,17.403c-3.777,5.761-9.432,8.99-15.96,11.525c-1.874,0.725-3.755,1.453-5.645,2.168
		c3.279-3.766,6.081-7.915,8.438-12.151c2.157-3.872,4.098-7.938,5.712-12.129c2.136-4.147,3.525-8.646,4.312-13.246
		c0.02,0.464,0.034,0.927,0.034,1.395c-0.002,0.896,1.473,0.896,1.487,0c0.045-2.714-0.241-5.337-0.804-7.867
		c0.051-0.956,0.091-1.91,0.098-2.861c0.041-4.355-0.389-8.604-1.36-12.661C135.149,55.446,138.6,65.449,138.642,75.13
		 M109.943,14.251c9.128,5.813,13.985,13.525,16.087,22.095c-1.831-3.263-4.191-6.3-7.125-9.056
		c-0.093-0.095-0.193-0.184-0.287-0.281c-0.047-0.042-0.09-0.087-0.137-0.13c-1.577-1.563-3.294-3.03-5.171-4.366
		c-11.423-8.134-26.828-13.239-41.053-14.49c-4.284-0.377-8.606-0.315-12.902,0.099c-3.603-0.42-7.387-0.865-11.206-1.101
		C67.871-0.896,92.167,2.934,109.943,14.251 M21.696,15.144c5.371-4.563,12.13-6.116,19.152-6.368
		c-2.881,1.687-5.618,3.632-8.168,5.84c-0.222,0.192-0.281,0.417-0.238,0.624c-1.299,0.561-2.588,1.134-3.851,1.739
		c-8.114,3.887-14.236,9.226-18.4,16.029C12.598,26.182,16.259,19.762,21.696,15.144 M16.945,104.768
		c-4.711-4.751-8.96-10.46-11.275-16.608c-2.401-6.378-2.393-13.243-1.847-19.904c0.136-1.633,0.282-3.266,0.446-4.903
		c0.496,8.276,2.155,16.503,4.726,24.407c1.987,6.114,4.568,11.951,8.103,17.157C17.049,104.864,16.997,104.822,16.945,104.768
		 M33.376,117.52c-1.964-1.122-3.764-2.363-5.442-3.691c2.821,0.807,5.771,1.157,8.695,1.47c4.466,0.482,8.873,1.119,13.297,1.845
		c0.744,0.24,1.494,0.475,2.243,0.701c13.644,4.126,28.927,6.973,42.573,1.315c1.811-0.75,3.532-1.637,5.184-2.61
		c-8.381,6.772-19.073,10.067-30.265,10.194C57.156,126.882,44.065,123.617,33.376,117.52 M57.744,53.084
		c0,1.056-0.812,1.913-1.81,1.913c-1,0-1.81-0.857-1.81-1.913c0-1.057,0.81-1.913,1.81-1.913
		C56.932,51.171,57.744,52.027,57.744,53.084"/>
</g>
<path fill="#FFFFFF" d="M238.898,59.099c3.014,0,5.265-1.732,5.265-6.007v-8.136h-1.817v8.259c0,3.058-1.341,4.419-3.386,4.419
	c-1.858,0-3.241-1.322-3.241-4.419v-8.259h-1.817v8.197C233.901,57.489,236.047,59.099,238.898,59.099z"/>
<path fill="#FFFFFF" d="M225.124,59.099c3.553,0,6.464-2.559,6.464-7.328c0-4.15-2.458-7.062-6.277-7.062
	c-3.716,0-6.442,2.891-6.442,7.31C218.868,56.229,221.43,59.099,225.124,59.099z M225.249,46.176c2.993,0,4.438,2.892,4.438,5.679
	c0,3.158-1.609,5.779-4.46,5.779c-2.85,0-4.46-2.663-4.46-5.657C220.768,48.94,222.254,46.176,225.249,46.176z"/>
<path fill="#FFFFFF" d="M253.602,59.018c1.877,0,3.489-0.454,4.292-0.763v-6.689h-4.582v1.443h2.808v4.15
	c-0.413,0.207-1.218,0.371-2.395,0.371c-3.264,0-5.368-2.087-5.368-5.615c0-3.49,2.208-5.595,5.595-5.595
	c1.404,0,2.333,0.248,3.076,0.598l0.455-1.464c-0.6-0.29-1.881-0.643-3.489-0.643c-4.667,0-7.537,3.036-7.537,7.185
	c0,2.17,0.744,4.029,1.94,5.183C249.759,58.481,251.493,59.018,253.602,59.018z"/>
<polygon fill="#FFFFFF" points="262.417,52.349 269.147,52.349 269.147,58.873 270.967,58.873 270.967,44.956 269.147,44.956 
	269.147,50.778 262.417,50.778 262.417,44.956 260.602,44.956 260.602,58.873 262.417,58.873 "/>
<rect x="177.405" y="44.958" fill="#FFFFFF" width="1.817" height="13.915"/>
<path fill="#FFFFFF" d="M174.433,54.269v-9.312h-1.817v9.168c0,2.727-0.929,3.448-2.539,3.448c-0.62,0-1.156-0.123-1.528-0.268
	l-0.249,1.466c0.434,0.184,1.238,0.328,1.922,0.328C172.615,59.099,174.433,57.966,174.433,54.269z"/>
<rect x="168.218" y="64.773" fill="#FFFFFF" width="105.15" height="1.001"/>
<polygon fill="#FFFFFF" points="208.027,52.349 214.76,52.349 214.76,58.873 216.576,58.873 216.576,44.956 214.76,44.956 
	214.76,50.778 208.027,50.778 208.027,44.956 206.211,44.956 206.211,58.873 208.027,58.873 "/>
<polygon fill="#FFFFFF" points="190.104,57.366 184.158,57.366 184.158,44.956 182.341,44.956 182.341,58.873 190.104,58.873 "/>
<polygon fill="#FFFFFF" points="199.85,57.366 193.903,57.366 193.903,44.956 192.086,44.956 192.086,58.873 199.85,58.873 "/>
<g>
	<path fill="#FFFFFF" d="M178.499,85.341c0.819,0.525,1.995,0.924,3.255,0.924c1.868,0,2.96-0.986,2.96-2.414
		c0-1.303-0.756-2.079-2.666-2.793c-2.31-0.84-3.737-2.058-3.737-4.031c0-2.205,1.826-3.842,4.577-3.842
		c1.428,0,2.498,0.336,3.107,0.692l-0.504,1.491c-0.441-0.273-1.386-0.672-2.667-0.672c-1.932,0-2.666,1.154-2.666,2.12
		c0,1.323,0.86,1.974,2.813,2.729c2.394,0.924,3.59,2.078,3.59,4.157c0,2.184-1.596,4.095-4.934,4.095
		c-1.364,0-2.855-0.42-3.611-0.924L178.499,85.341z"/>
	<path fill="#FFFFFF" d="M189.083,73.415h1.827v6.824h0.062c0.378-0.547,0.756-1.051,1.113-1.512l4.325-5.312h2.268l-5.123,6.005
		l5.521,8.146h-2.162l-4.641-6.95l-1.364,1.555v5.396h-1.827V73.415z"/>
	<path fill="#FFFFFF" d="M202.292,73.415v14.151h-1.848V73.415H202.292z"/>
	<path fill="#FFFFFF" d="M205.484,87.566V73.415h2.016l4.515,7.16c1.028,1.658,1.868,3.148,2.52,4.598l0.062-0.021
		c-0.168-1.889-0.21-3.611-0.21-5.815v-5.921h1.722v14.151h-1.848l-4.493-7.181c-0.987-1.574-1.932-3.191-2.624-4.725l-0.063,0.021
		c0.104,1.785,0.126,3.485,0.126,5.837v6.047H205.484z"/>
	<path fill="#FFFFFF" d="M229.17,87.126c-0.651,0.336-2.016,0.672-3.737,0.672c-3.989,0-6.971-2.52-6.971-7.182
		c0-4.451,3.002-7.432,7.391-7.432c1.742,0,2.877,0.377,3.359,0.629l-0.462,1.491c-0.672-0.336-1.659-0.588-2.835-0.588
		c-3.316,0-5.521,2.12-5.521,5.837c0,3.485,1.994,5.689,5.417,5.689c1.134,0,2.268-0.23,3.003-0.588L229.17,87.126z"/>
	<path fill="#FFFFFF" d="M233.854,83.115l-1.471,4.451h-1.889l4.828-14.151h2.184l4.83,14.151h-1.953l-1.512-4.451H233.854z
		 M238.515,81.688l-1.406-4.073c-0.314-0.924-0.525-1.764-0.734-2.582h-0.043c-0.209,0.818-0.42,1.7-0.713,2.561l-1.387,4.095
		H238.515z"/>
	<path fill="#FFFFFF" d="M244.418,73.604c0.924-0.168,2.268-0.295,3.507-0.295c1.952,0,3.232,0.379,4.094,1.155
		c0.693,0.63,1.113,1.596,1.113,2.708c0,1.848-1.176,3.087-2.646,3.591v0.063c1.071,0.377,1.723,1.385,2.059,2.855
		c0.461,1.973,0.797,3.338,1.092,3.884h-1.891c-0.23-0.42-0.545-1.616-0.924-3.38c-0.42-1.953-1.196-2.688-2.855-2.751h-1.721v6.131
		h-1.827V73.604z M246.245,80.05h1.868c1.952,0,3.191-1.07,3.191-2.688c0-1.826-1.323-2.625-3.255-2.625
		c-0.881,0-1.49,0.063-1.805,0.147V80.05z"/>
	<path fill="#FFFFFF" d="M263.022,80.932h-5.48v5.103h6.131v1.532h-7.979V73.415h7.664v1.533h-5.816v4.472h5.48V80.932z"/>
</g>
</svg>
